<?xml version="1.0" encoding="utf-8"?>
<!-- Generator: Adobe Illustrator 25.0.0, SVG Export Plug-In . SVG Version: 6.00 Build 0)  -->
<svg version="1.1" id="Camada_1" xmlns="http://www.w3.org/2000/svg" xmlns:xlink="http://www.w3.org/1999/xlink" x="0px" y="0px"
	 viewBox="0 0 596.28 843.08" style="enable-background:new 0 0 596.28 843.08;" xml:space="preserve">
<style type="text/css">
	.st0{fill:url(#SVGID_1_);stroke:#000000;stroke-miterlimit:10;}
	.st1{fill:url(#SVGID_2_);stroke:#000000;stroke-miterlimit:10;}
	.st2{fill:none;}
	.st3{fill:#FFFFFF;}
	.st4{font-family:'Arial-Black';}
	.st5{font-size:120px;}
	.st6{font-size:50px;}
</style>
<linearGradient id="SVGID_1_" gradientUnits="userSpaceOnUse" x1="41.4538" y1="-23.1447" x2="554.8217" y2="866.0345">
	<stop  offset="0" style="stop-color:#4FA0CA"/>
	<stop  offset="1" style="stop-color:#13017C"/>
</linearGradient>
<path class="st0" d="M548.21,842.39L411.2,705.37C274.3,751.05,137.4,796.72,0.5,842.39l0,0V0.5h595.28v841.89H548.21z"/>
<linearGradient id="SVGID_2_" gradientUnits="userSpaceOnUse" x1="217.2857" y1="733.1469" x2="343.4286" y2="951.6328">
	<stop  offset="0" style="stop-color:#19057A"/>
	<stop  offset="1" style="stop-color:#19057A"/>
</linearGradient>
<path class="st1" d="M532.64,842.39c-168.19,0-336.38,0-504.57,0c127.05-41.3,254.1-82.59,381.14-123.89
	C450.36,759.8,491.5,801.09,532.64,842.39z"/>
<rect x="56.64" y="69.93" class="st2" width="483.43" height="474.86"/>
<text transform="matrix(1 0 0 1 155.0371 155.8472)"><tspan x="0" y="0" class="st3 st4 st5">DOC</tspan><tspan x="-56.72" y="144" class="st3 st4 st5">LÍDER</tspan></text>
<rect x="56.64" y="364.79" class="st3" width="476" height="15.43"/>
<rect x="60.36" y="426.5" class="st3" width="476" height="15.43"/>
<rect x="60.36" y="488.21" class="st3" width="476" height="15.43"/>
<rect x="60.36" y="549.93" class="st3" width="476" height="15.43"/>
<rect x="61.79" y="601.36" class="st2" width="474.86" height="60"/>
<text transform="matrix(1 0 0 1 93.6602 637.1572)" class="st3 st4 st6">WITTING EASY</text>
</svg>
