<?xml version="1.0" encoding="utf-8"?>
<!-- Generator: Adobe Illustrator 25.0.0, SVG Export Plug-In . SVG Version: 6.00 Build 0)  -->
<svg version="1.1" id="Camada_1" xmlns="http://www.w3.org/2000/svg" xmlns:xlink="http://www.w3.org/1999/xlink" x="0px" y="0px"
	 viewBox="0 0 146.6 149.6" style="enable-background:new 0 0 146.6 149.6;" xml:space="preserve">
<style type="text/css">
	.st0{fill:url(#SVGID_1_);}
	.st1{fill:url(#SVGID_2_);}
	.st2{fill:url(#SVGID_3_);}
	.st3{fill:url(#SVGID_4_);}
	.st4{fill:url(#SVGID_5_);}
	.st5{fill:#3C7ABE;}
</style>
<g>
	<linearGradient id="SVGID_1_" gradientUnits="userSpaceOnUse" x1="47.69" y1="20.4" x2="130.2" y2="20.4">
		<stop  offset="0" style="stop-color:#3C7ABE"/>
		<stop  offset="1" style="stop-color:#2E3192"/>
	</linearGradient>
	<path class="st0" d="M106.7,6c-9.13-4-19.5-6-31.1-6c-9.84,0-19.14,1.67-27.91,5.02C53.12,5.08,63.59,5.93,75,11.8
		c11.07,5.69,17.75,13.38,21,17.7c5.73,2.6,10.93,6.37,15.6,11.3l18.6-18.2C123.67,15.53,115.83,10,106.7,6z"/>
	<linearGradient id="SVGID_2_" gradientUnits="userSpaceOnUse" x1="75" y1="94.25" x2="146.6" y2="94.25">
		<stop  offset="0" style="stop-color:#2E3192"/>
		<stop  offset="0.2302" style="stop-color:#2F3796"/>
		<stop  offset="0.5521" style="stop-color:#334AA1"/>
		<stop  offset="0.9263" style="stop-color:#3967B3"/>
		<stop  offset="1" style="stop-color:#3A6EB7"/>
	</linearGradient>
	<path class="st1" d="M146.6,80.4c0,4.46-0.33,8.8-0.99,13c-3.5,4.73-10.06,12.32-20.61,18.4c-12.26,7.06-23.79,8.55-29.9,8.9
		c3.24-1.35,6.19-2.95,8.85-4.78l0.04-0.03c1.64-1.13,3.19-2.37,4.61-3.69c2.67-2.4,4.97-5.43,6.9-9.1s3.43-7.77,4.5-12.3H75v-23
		h70.2c0.4,1.6,0.73,3.53,1,5.8C146.47,75.87,146.6,78.13,146.6,80.4z"/>
	<linearGradient id="SVGID_3_" gradientUnits="userSpaceOnUse" x1="30.9" y1="121.5" x2="145.61" y2="121.5">
		<stop  offset="0" style="stop-color:#9E005D"/>
		<stop  offset="1" style="stop-color:#FF0000"/>
	</linearGradient>
	<path class="st2" d="M145.61,93.4c-0.7,4.48-1.77,8.81-3.21,13c-2.8,8.13-7.2,15.4-13.2,21.8c-6.4,6.8-14.07,12.07-23,15.8
		c-8.93,3.73-19.13,5.6-30.6,5.6c-5.29,0-10.42-0.48-15.4-1.45c-4.89-3.72-11.45-9.63-17.2-18.35c-9.14-13.84-11.42-27.43-12.1-34.7
		c1.36,3.17,2.97,6.1,4.84,8.77l0.02,0.02c1.69,2.44,3.61,4.68,5.74,6.71c4.47,4.27,9.63,7.57,15.5,9.9
		c5.87,2.33,12.13,3.5,18.8,3.5c7.6,0,14.03-1.1,19.3-3.3c6.11-0.35,17.64-1.84,29.9-8.9C135.55,105.72,142.11,98.13,145.61,93.4z"
		/>
	<linearGradient id="SVGID_4_" gradientUnits="userSpaceOnUse" x1="30.3235" y1="39.2768" x2="29.9887" y2="147.3243">
		<stop  offset="0" style="stop-color:#F3FF3F"/>
		<stop  offset="0.3757" style="stop-color:#D5CC25"/>
		<stop  offset="0.7944" style="stop-color:#B6980A"/>
		<stop  offset="1" style="stop-color:#AA8400"/>
	</linearGradient>
	<path class="st3" d="M60.2,148.15c-4.81-0.94-9.48-2.32-14-4.15c-9.2-3.73-17.2-8.93-24-15.6S10,113.83,6,104.7S0,85.6,0,74.8
		c0-0.87,0.01-1.73,0.04-2.59v-0.05C2.93,66.63,8.4,57.84,18,49.8c10.7-8.97,21.53-12.81,27.74-14.52c-0.91,0.68-1.8,1.41-2.66,2.16
		l-0.03,0.03c-0.56,0.49-1.11,1-1.65,1.53c-4.4,4.27-7.9,9.43-10.5,15.5C28.3,60.57,27,67.33,27,74.8c0,7.47,1.3,14.23,3.9,20.3
		c0.68,7.27,2.96,20.86,12.1,34.7C48.75,138.52,55.31,144.43,60.2,148.15z"/>
	<linearGradient id="SVGID_5_" gradientUnits="userSpaceOnUse" x1="0.04" y1="38.59" x2="96" y2="38.59">
		<stop  offset="0" style="stop-color:#39D64A"/>
		<stop  offset="1" style="stop-color:#002D26"/>
	</linearGradient>
	<path class="st4" d="M96,29.5c-5.73-2.6-12.6-3.9-20.6-3.9c-6.53,0-12.73,1.17-18.6,3.5c-4.04,1.6-7.72,3.66-11.06,6.18
		C39.53,36.99,28.7,40.83,18,49.8C8.4,57.84,2.93,66.63,0.04,72.16C0.34,62.37,2.33,53.28,6,44.9c4-9.13,9.4-17.03,16.2-23.7
		C29,14.53,37,9.33,46.2,5.6c0.5-0.2,0.99-0.4,1.49-0.58C53.12,5.08,63.59,5.93,75,11.8C86.07,17.49,92.75,25.18,96,29.5z"/>
</g>
<path class="st5" d="M0,72.24c0.01-0.03,0.03-0.05,0.04-0.08v0.05L0,72.24z"/>
</svg>
