<?xml version="1.0" encoding="utf-8"?>
<!-- Generator: Adobe Illustrator 25.0.0, SVG Export Plug-In . SVG Version: 6.00 Build 0)  -->
<svg version="1.1" id="Camada_1" xmlns="http://www.w3.org/2000/svg" xmlns:xlink="http://www.w3.org/1999/xlink" x="0px" y="0px"
	 viewBox="0 0 826.8 149.6" style="enable-background:new 0 0 826.8 149.6;" xml:space="preserve">
<style type="text/css">
	.st0{fill:#4285F4;}
	.st1{fill:#EA4335;}
	.st2{fill:#FBBC05;}
	.st3{fill:#34A853;}
</style>
<g>
	<path class="st0" d="M75,67.8h70.2c0.4,1.6,0.7,3.5,1,5.8c0.3,2.3,0.4,4.5,0.4,6.8c0,9.2-1.4,17.9-4.2,26s-7.2,15.4-13.2,21.8
		c-6.4,6.8-14.1,12.1-23,15.8s-19.1,5.6-30.6,5.6c-10.4,0-20.2-1.9-29.4-5.6c-9.2-3.7-17.2-8.9-24-15.6C15.4,121.7,10,113.8,6,104.7
		S0,85.6,0,74.8S2,54,6,44.9s9.4-17,16.2-23.7C29,14.5,37,9.3,46.2,5.6S65.2,0,75.6,0c11.6,0,22,2,31.1,6s17,9.5,23.5,16.6
		l-18.6,18.2c-4.7-4.9-9.9-8.7-15.6-11.3c-5.7-2.6-12.6-3.9-20.6-3.9c-6.5,0-12.7,1.2-18.6,3.5s-11,5.6-15.4,9.9s-7.9,9.4-10.5,15.5
		C28.3,60.6,27,67.3,27,74.8s1.3,14.2,3.9,20.3c2.6,6.1,6.1,11.2,10.6,15.5c4.5,4.3,9.6,7.6,15.5,9.9s12.1,3.5,18.8,3.5
		c7.6,0,14-1.1,19.3-3.3c5.3-2.2,9.8-5,13.5-8.5c2.7-2.4,5-5.4,6.9-9.1s3.4-7.8,4.5-12.3H75V67.8z"/>
	<path class="st1" d="M227.6,133.6H226c-3.1,4.9-7.2,8.8-12.4,11.7s-11.1,4.3-17.8,4.3c-12.4,0-21.6-3.8-27.7-11.4
		c-6.1-7.6-9.1-17.7-9.1-30.4V48.4h26.2v56.2c0,7.1,1.6,12.3,4.7,15.7c3.1,3.4,7.7,5.1,13.7,5.1c3.6,0,6.8-0.8,9.5-2.3
		c2.7-1.5,5.1-3.6,7-6.2s3.4-5.7,4.4-9.2s1.5-7.3,1.5-11.3v-48h26.2v98h-24.6L227.6,133.6L227.6,133.6z"/>
	<path class="st2" d="M283.2,35.2c-2.3,0-4.4-0.4-6.5-1.3s-3.9-2.1-5.4-3.6s-2.7-3.3-3.6-5.3s-1.3-4.2-1.3-6.6s0.4-4.6,1.3-6.6
		s2.1-3.8,3.6-5.3s3.3-2.7,5.4-3.6s4.2-1.3,6.5-1.3c4.7,0,8.7,1.6,12,4.9s5,7.2,5,11.9s-1.7,8.6-5,11.9
		C291.9,33.6,287.9,35.2,283.2,35.2z M270.2,146.4v-98h26.2v98H270.2z"/>
	<path class="st0" d="M373.8,136h-1.6c-3.1,3.7-6.8,6.9-11.1,9.6c-4.3,2.7-9.9,4-16.7,4c-5.1,0-9.8-0.8-14.3-2.5s-8.4-4-11.7-6.9
		c-3.3-2.9-5.9-6.5-7.8-10.6c-1.9-4.1-2.8-8.7-2.8-13.6c0-5.1,1-9.6,3-13.7s4.8-7.6,8.4-10.5s7.8-5.2,12.7-6.7
		c4.9-1.5,10.2-2.3,15.9-2.3c6.4,0,11.7,0.5,15.8,1.5c4.1,1,7.5,2,10.2,3.1v-3c0-5.2-2.1-9.5-6.2-12.9s-9.3-5.1-15.4-5.1
		c-9.1,0-16.7,3.8-23,11.4l-19-13c10.4-13.1,24.6-19.6,42.6-19.6c15.2,0,26.8,3.6,34.8,10.7s12,17.7,12,31.7v58.8h-25.8V136z
		 M373.8,106.6c-3.1-1.5-6.2-2.6-9.5-3.5s-6.8-1.3-10.7-1.3c-6.3,0-11.1,1.4-14.5,4.1c-3.4,2.7-5.1,6.1-5.1,10.1s1.6,7.2,4.9,9.6
		s7,3.6,11.3,3.6c3.5,0,6.7-0.6,9.6-1.9s5.4-2.9,7.5-5s3.7-4.5,4.8-7.2C373.2,112.4,373.8,109.5,373.8,106.6z"/>
	<path class="st3" d="M576.8,123.4c-7.1,8.5-15.4,15-25,19.5c-9.6,4.5-20.3,6.7-32.2,6.7c-10.7,0-20.6-1.9-29.7-5.8
		c-9.1-3.9-17-9.1-23.7-15.8c-6.7-6.7-11.9-14.6-15.8-23.7s-5.8-19-5.8-29.5s1.9-20.4,5.8-29.5s9.1-17,15.8-23.7
		c6.7-6.7,14.6-11.9,23.7-15.8s19-5.8,29.7-5.8c11.5,0,21.6,2,30.3,6s16.5,9.8,23.3,17.4l-19,18.4c-4.3-4.9-9.2-8.9-14.7-11.8
		c-5.5-2.9-12.1-4.4-19.7-4.4c-6.7,0-12.9,1.2-18.8,3.5s-11,5.6-15.3,9.9s-7.8,9.4-10.3,15.5c-2.5,6.1-3.8,12.8-3.8,20.3
		s1.3,14.2,3.8,20.3c2.5,6.1,6,11.2,10.3,15.5c4.3,4.3,9.4,7.6,15.3,9.9s12.1,3.5,18.8,3.5c8,0,15.1-1.6,21.3-4.9
		c6.2-3.3,11.7-7.9,16.5-13.9L576.8,123.4z"/>
	<path class="st1" d="M592.4,146.4V3.2h50.4c6.8,0,13.2,1.1,19.1,3.3s11.1,5.3,15.5,9.3s7.9,8.8,10.4,14.3s3.8,11.6,3.8,18.3
		c0,6.8-1.3,13-3.8,18.5c-2.5,5.5-6,10.3-10.4,14.3s-9.6,7.1-15.5,9.3c-5.9,2.2-12.3,3.3-19.1,3.3h-23.4v52.6L592.4,146.4
		L592.4,146.4z M643.2,68.2c7.1,0,12.4-2,16-6s5.4-8.6,5.4-13.8c0-2.5-0.4-5-1.3-7.4s-2.2-4.5-4-6.3s-4-3.2-6.7-4.3
		s-5.8-1.6-9.4-1.6h-23.8v39.4H643.2z"/>
	<path class="st2" d="M704.8,3.2h48.4c11.3,0,21.5,1.7,30.6,5.2c9.1,3.5,16.8,8.4,23.2,14.7s11.3,13.9,14.7,22.7s5.1,18.5,5.1,29
		c0,10.7-1.7,20.4-5.1,29.2c-3.4,8.8-8.3,16.3-14.7,22.6s-14.1,11.1-23.2,14.6s-19.3,5.2-30.6,5.2h-48.4V3.2z M752,120.8
		c7.9,0,14.8-1.1,20.8-3.3c6-2.2,11-5.3,15-9.3s7-8.8,9-14.5s3-12,3-18.9c0-6.9-1-13.2-3-18.9s-5-10.5-9-14.5s-9-7.1-15-9.3
		s-12.9-3.3-20.8-3.3h-20.2v92C731.8,120.8,752,120.8,752,120.8z"/>
</g>
</svg>
