<?xml version="1.0" encoding="utf-8"?>
<!-- Generator: Adobe Illustrator 25.0.0, SVG Export Plug-In . SVG Version: 6.00 Build 0)  -->
<svg version="1.1" id="Camada_2" xmlns="http://www.w3.org/2000/svg" xmlns:xlink="http://www.w3.org/1999/xlink" x="0px" y="0px"
	 viewBox="0 0 245.16 268.05" style="enable-background:new 0 0 245.16 268.05;" xml:space="preserve">
<style type="text/css">
	.st0{fill:url(#SVGID_1_);}
	.st1{fill:#FFFFFF;}
	.st2{fill:none;}
</style>
<linearGradient id="SVGID_1_" gradientUnits="userSpaceOnUse" x1="122.5789" y1="268.0497" x2="122.5789" y2="-9.094947e-13">
	<stop  offset="0" style="stop-color:#FF4000"/>
	<stop  offset="1" style="stop-color:#FEA621"/>
</linearGradient>
<path class="st0" d="M0,188.6c0.61-37.15,1.23-74.31,1.84-111.46c-0.01-2.86,0.36-8.3,3.3-14.26c3.24-6.56,7.91-10.33,10.29-12
	c26.1-15.24,52.19-30.48,78.29-45.71c6.36-2.4,16.96-5.48,30.29-5.14c11.29,0.28,20.36,2.91,26.29,5.14
	c27.62,17.14,55.24,34.29,82.86,51.43c2,1.31,5.75,4.15,8.57,9.14c3.12,5.53,3.44,10.73,3.43,13.14c0,36.57,0,73.14,0,109.71
	c0.09,2.9-0.14,8.3-2.86,14.29c-2.29,5.05-5.4,8.41-7.43,10.29c-28.38,16.57-56.76,33.14-85.14,49.71
	c-5.92,2.24-14.99,4.86-26.29,5.14c-13.33,0.33-23.93-2.75-30.29-5.14c-27.24-17.52-54.48-35.05-81.71-52.57
	c-2.05-1.4-6.41-4.79-9.14-10.86C0.28,194.99-0.01,190.96,0,188.6z"/>
<polygon class="st1" points="166.02,48.67 166.02,66.39 100.31,66.39 100.31,198.96 166.02,198.96 166.02,216.1 82.59,216.1 
	82.59,48.67 "/>
<rect x="110.16" y="76.54" class="st2" width="50.15" height="11.57"/>
<rect x="110.16" y="93.68" class="st2" width="50.15" height="56.14"/>
<rect x="110.16" y="76.54" class="st2" width="50.15" height="11.57"/>
<rect x="110.16" y="93.68" class="st2" width="50.15" height="56.14"/>
<rect x="104.16" y="160.1" class="st2" width="61.86" height="34.29"/>
<rect x="110.16" y="166.96" class="st2" width="50.14" height="21.86"/>
<path class="st1" d="M104.16,71.39v83.15h61.86V71.39H104.16z M160.31,149.82h-50.15V93.68h50.15V149.82z M160.31,88.11h-50.15
	V76.54h50.15V88.11z"/>
<rect x="127.31" y="78.67" class="st1" width="17.14" height="5.14"/>
<rect x="122.58" y="177.89" class="st1" width="26.58" height="8.36"/>
<polygon class="st1" points="160.31,76.54 166.02,71.39 166.02,154.54 160.31,149.82 "/>
<polygon class="st1" points="110.16,76.54 160.31,76.54 166.02,71.39 104.16,71.39 "/>
<polygon class="st1" points="110.16,149.82 110.16,76.54 104.16,71.39 104.16,154.54 "/>
<polygon class="st1" points="104.16,154.54 166.02,154.54 160.31,149.82 110.16,149.82 "/>
<polygon class="st1" points="166.02,160.1 160.31,166.96 160.31,188.82 166.02,194.39 "/>
<polygon class="st1" points="110.16,166.96 160.31,166.96 166.02,160.1 104.16,160.1 "/>
<polygon class="st1" points="110.16,188.82 110.16,166.96 104.16,160.1 104.16,194.39 "/>
<polygon class="st1" points="166.02,194.39 160.31,188.82 110.16,188.82 104.16,194.39 "/>
</svg>
