<?xml version="1.0" encoding="utf-8"?>
<!-- Generator: Adobe Illustrator 25.0.0, SVG Export Plug-In . SVG Version: 6.00 Build 0)  -->
<svg version="1.1" xmlns="http://www.w3.org/2000/svg" xmlns:xlink="http://www.w3.org/1999/xlink" x="0px" y="0px"
	 viewBox="0 0 442.78 401" style="enable-background:new 0 0 442.78 401;" xml:space="preserve">
<style type="text/css">
	.st0{stroke:#FFFFFF;stroke-width:3;stroke-miterlimit:10;}
	.st1{fill:url(#SVGID_1_);stroke:#FFFFFF;stroke-width:3;stroke-miterlimit:10;}
	.st2{fill:url(#SVGID_2_);stroke:#FFFFFF;stroke-width:3;stroke-miterlimit:10;}
	.st3{fill:url(#SVGID_3_);stroke:#FFFFFF;stroke-width:3;stroke-miterlimit:10;}
	.st4{fill:url(#SVGID_4_);stroke:#FFFFFF;stroke-width:3;stroke-miterlimit:10;}
	.st5{fill:url(#SVGID_5_);stroke:#FFFFFF;stroke-width:3;stroke-miterlimit:10;}
	.st6{fill:url(#SVGID_6_);stroke:#FFFFFF;stroke-width:2;stroke-miterlimit:10;}
	.st7{fill:url(#SVGID_7_);stroke:#FFFFFF;stroke-width:2;stroke-miterlimit:10;}
</style>
<g id="Camada_3">
	<rect x="6.23" y="169.85" class="st0" width="430.29" height="13.71"/>
	<linearGradient id="SVGID_1_" gradientUnits="userSpaceOnUse" x1="218.7573" y1="369.5997" x2="223.957" y2="-69.4616">
		<stop  offset="0.4042" style="stop-color:#000000"/>
		<stop  offset="0.4351" style="stop-color:#0C5A2E"/>
		<stop  offset="0.4432" style="stop-color:#0F723B"/>
		<stop  offset="0.494" style="stop-color:#008E4D"/>
	</linearGradient>
	<path class="st1" d="M436.8,183.57H6.51c-3.14-1.07-5.19-4.08-5-7.29c0.17-2.91,2.16-5.47,5-6.43c143.43,0,286.86,0,430.29,0
		c0.23,0.14,3.79,2.47,3.79,6.86S437.03,183.42,436.8,183.57z"/>
	<linearGradient id="SVGID_2_" gradientUnits="userSpaceOnUse" x1="221.6477" y1="397.6129" x2="220.2826" y2="-41.4683">
		<stop  offset="0.4084" style="stop-color:#000000"/>
		<stop  offset="0.4359" style="stop-color:#0C5A2E"/>
		<stop  offset="0.4432" style="stop-color:#0F723B"/>
		<stop  offset="0.4797" style="stop-color:#008E4D"/>
	</linearGradient>
	<path class="st2" d="M436.8,209.57H6.51c-3.14-1.07-5.19-4.08-5-7.29c0.17-2.91,2.16-5.47,5-6.43c143.43,0,286.86,0,430.29,0
		c0.23,0.14,3.79,2.47,3.79,6.86S437.03,209.42,436.8,209.57z"/>
	<linearGradient id="SVGID_3_" gradientUnits="userSpaceOnUse" x1="221.898" y1="422.6467" x2="221.5467" y2="-16.4365">
		<stop  offset="0.4042" style="stop-color:#000000"/>
		<stop  offset="0.4351" style="stop-color:#0C5A2E"/>
		<stop  offset="0.4432" style="stop-color:#0F723B"/>
		<stop  offset="0.494" style="stop-color:#008E4D"/>
	</linearGradient>
	<path class="st3" d="M437.5,235.57H7.21c-3.14-1.07-5.19-4.08-5-7.29c0.17-2.91,2.16-5.47,5-6.43c143.43,0,286.86,0,430.29,0
		c0.23,0.14,3.79,2.47,3.79,6.86S437.73,235.42,437.5,235.57z"/>
	<linearGradient id="SVGID_4_" gradientUnits="userSpaceOnUse" x1="221.7078" y1="450.1777" x2="221.7865" y2="11.0943">
		<stop  offset="0.413" style="stop-color:#000000"/>
		<stop  offset="0.4369" style="stop-color:#0C5A2E"/>
		<stop  offset="0.4432" style="stop-color:#0F723B"/>
		<stop  offset="0.4862" style="stop-color:#008E4D"/>
	</linearGradient>
	<path class="st4" d="M437.5,261.57H7.21c-3.14-1.07-5.19-4.08-5-7.29c0.17-2.91,2.16-5.47,5-6.43c143.43,0,286.86,0,430.29,0
		c0.23,0.14,3.79,2.47,3.79,6.86C441.28,259.09,437.73,261.42,437.5,261.57z"/>
	<linearGradient id="SVGID_5_" gradientUnits="userSpaceOnUse" x1="222.0373" y1="472.4673" x2="219.8011" y2="33.3896">
		<stop  offset="0.4144" style="stop-color:#000000"/>
		<stop  offset="0.4372" style="stop-color:#0C5A2E"/>
		<stop  offset="0.4432" style="stop-color:#0F723B"/>
		<stop  offset="0.4769" style="stop-color:#008E4D"/>
	</linearGradient>
	<path class="st5" d="M436.8,283.85H6.51c-3.14-1.07-5.19-4.08-5-7.29c0.17-2.91,2.16-5.47,5-6.43c143.43,0,286.86,0,430.29,0
		c0.23,0.14,3.79,2.47,3.79,6.86S437.03,283.71,436.8,283.85z"/>
</g>
<g id="Camada_2">
	<linearGradient id="SVGID_6_" gradientUnits="userSpaceOnUse" x1="255.2249" y1="341.71" x2="431.7949" y2="341.71">
		<stop  offset="0" style="stop-color:#F18A22"/>
		<stop  offset="0.5947" style="stop-color:#EB6008"/>
	</linearGradient>
	<path class="st6" d="M431.79,337v63H255.22v-63c6.74-0.95,15.45-2.28,25.72-4.08c7.68-1.34,13.18-2.42,17.14-7.07
		c2.19-2.58,3.16-5.37,3.63-7.28v-35.15h82.51v35.15c0.96,2.2,2.68,5.36,5.79,8.14c4.44,3.96,9.26,4.95,19.07,6.64
		C418.29,334.94,426.03,336.15,431.79,337z"/>
	<linearGradient id="SVGID_7_" gradientUnits="userSpaceOnUse" x1="70.0791" y1="200.5" x2="445.9392" y2="200.5">
		<stop  offset="0" style="stop-color:#F18A22"/>
		<stop  offset="1" style="stop-color:#EB6008"/>
	</linearGradient>
	<path class="st7" d="M198.44,258.57h0.02l-10.5,14.57l-7.42,10.28l-26.89,37.29c-1.85,3.51-1.6,5.73-1.07,7.07
		c0.84,2.1,3.2,4.08,17.36,6.64c5.28,0.96,10.3,1.65,15,2.15V400H8.36v-63.43c10.87-1.68,18.55-2.84,22.5-3.43
		c12.38-1.86,18.14-2.66,25.08-6.43c3.88-2.11,6.75-4.4,8.57-6c8.5-12.43,16.99-24.86,25.49-37.29l7.03-10.28l9.82-14.36l7.03-10.28
		l10.35-15.15l7.03-10.28l10.94-16l7.03-10.29l10.94-16l7.03-10.28L283.08,1h101.14v168.85h-82.57l0.06-54.44l-41.58,57.66
		l-7.42,10.28l-10.66,14.79l-7.42,10.28l-10.66,14.79l-7.43,10.29l-10.65,14.78L198.44,258.57z"/>
</g>
</svg>
