<?xml version="1.0" encoding="utf-8"?>
<!-- Generator: Adobe Illustrator 25.0.0, SVG Export Plug-In . SVG Version: 6.00 Build 0)  -->
<svg version="1.1" id="OBJECTS" xmlns="http://www.w3.org/2000/svg" xmlns:xlink="http://www.w3.org/1999/xlink" x="0px" y="0px"
	 viewBox="0 0 133.19 124.76" style="enable-background:new 0 0 133.19 124.76;" xml:space="preserve">
<style type="text/css">
	.st0{opacity:0.2;fill:#FFFFFF;}
	.st1{fill:url(#SVGID_1_);}
	.st2{fill:#FFFFFF;}
	.st3{fill:url(#SVGID_2_);}
	.st4{fill:url(#SVGID_3_);}
	.st5{fill:url(#SVGID_4_);}
</style>
<g>
	<g>
		<polygon class="st0" points="120.66,38.41 66.57,7.2 12.5,38.46 12.53,86.36 66.62,117.56 120.69,86.3 		"/>
		<g>
			<g>
				<g>
					<linearGradient id="SVGID_1_" gradientUnits="userSpaceOnUse" x1="70.9639" y1="15.0626" x2="119.4854" y2="41.414">
						<stop  offset="0" style="stop-color:#8A0BFF"/>
						<stop  offset="0.0612" style="stop-color:#810AF0"/>
						<stop  offset="0.2979" style="stop-color:#6206B9"/>
						<stop  offset="0.5183" style="stop-color:#4A048E"/>
						<stop  offset="0.7156" style="stop-color:#380270"/>
						<stop  offset="0.8829" style="stop-color:#2E005D"/>
						<stop  offset="1" style="stop-color:#2A0056"/>
					</linearGradient>
					<polygon class="st1" points="133.19,66.39 73.08,34.39 73.08,0 133.19,30.68 					"/>
					<g>
						<polygon class="st2" points="73.08,97.07 73.08,62.68 133.19,30.68 133.19,66.39 						"/>
					</g>
					<linearGradient id="SVGID_2_" gradientUnits="userSpaceOnUse" x1="73.9238" y1="79.6806" x2="136.2285" y2="46.9383">
						<stop  offset="0" style="stop-color:#AF53FF"/>
						<stop  offset="1" style="stop-color:#AE38FF"/>
					</linearGradient>
					<polygon class="st3" points="73.08,97.07 73.08,62.68 133.19,30.68 133.19,66.39 					"/>
				</g>
			</g>
			<g>
				<linearGradient id="SVGID_3_" gradientUnits="userSpaceOnUse" x1="22.3787" y1="87.8057" x2="60.5066" y2="107.5341">
					<stop  offset="0" style="stop-color:#3D0056"/>
					<stop  offset="0.1922" style="stop-color:#580A68"/>
					<stop  offset="0.6015" style="stop-color:#9C2495"/>
					<stop  offset="1" style="stop-color:#E33FC5"/>
				</linearGradient>
				<polygon class="st4" points="60.11,124.76 60.11,90.37 0,58.37 0,94.09 				"/>
				<polygon class="st2" points="0,94.09 60.11,62.08 60.11,27.69 0,58.37 				"/>
				<linearGradient id="SVGID_4_" gradientUnits="userSpaceOnUse" x1="58.8753" y1="45.6258" x2="-1.5962" y2="77.056">
					<stop  offset="0" style="stop-color:#8A0BFF"/>
					<stop  offset="0.1157" style="stop-color:#860BF8"/>
					<stop  offset="0.2868" style="stop-color:#7B09E4"/>
					<stop  offset="0.4925" style="stop-color:#6807C3"/>
					<stop  offset="0.7249" style="stop-color:#4E0495"/>
					<stop  offset="0.9767" style="stop-color:#2D005C"/>
					<stop  offset="1" style="stop-color:#2A0056"/>
				</linearGradient>
				<polygon class="st5" points="0,94.09 60.11,62.08 60.11,27.69 0,58.37 				"/>
			</g>
		</g>
	</g>
</g>
</svg>
