<?xml version="1.0" encoding="utf-8"?>
<!-- Generator: Adobe Illustrator 25.0.0, SVG Export Plug-In . SVG Version: 6.00 Build 0)  -->
<svg version="1.1" id="graphics" xmlns="http://www.w3.org/2000/svg" xmlns:xlink="http://www.w3.org/1999/xlink" x="0px" y="0px"
	 viewBox="0 0 170.89 225.46" style="enable-background:new 0 0 170.89 225.46;" xml:space="preserve">
<style type="text/css">
	.st0{fill:url(#SVGID_1_);}
	.st1{fill:url(#SVGID_2_);}
	.st2{fill:url(#SVGID_3_);}
	.st3{fill:url(#SVGID_4_);}
</style>
<g>
	<linearGradient id="SVGID_1_" gradientUnits="userSpaceOnUse" x1="215.5047" y1="76.9574" x2="-26.8032" y2="52.0139">
		<stop  offset="0.0667" style="stop-color:#4CE5AE"/>
		<stop  offset="0.6848" style="stop-color:#1CAABC"/>
		<stop  offset="0.9636" style="stop-color:#076266"/>
	</linearGradient>
	<path class="st0" d="M139.41,124.79c12.26-6.54,22.92-17.96,24.51-29.98c2.82-21.39-10.88-37.49-28.38-44.91
		c-20.9-8.86-6.95-2.52-86.88-23.56C10.24,16.23,7.78,6.8,8.64,0C-1.74,6.8-4.92,43.82,13.07,54.96
		C31.56,66.4,68.41,68.79,114.72,81.94C155.43,93.51,149.4,114.83,139.41,124.79z"/>
	<linearGradient id="SVGID_2_" gradientUnits="userSpaceOnUse" x1="0" y1="153.0842" x2="170.8862" y2="153.0842">
		<stop  offset="0.0364" style="stop-color:#076266"/>
		<stop  offset="0.3152" style="stop-color:#1CAABC"/>
		<stop  offset="0.9333" style="stop-color:#4CE5AE"/>
	</linearGradient>
	<path class="st1" d="M147.63,131.07c-3.54-2.1-7.39-3.83-11.5-5.12c-57.92-13.28-63-13-82.21-17.67
		C1.55,95.55,7.85,84.94,6.51,80.71c-9.65,10.3-9.82,42.5,8.08,52.15c21.71,11.71,59.9,15.54,108.3,27.59
		c15.74,3.92,24.97,8.6,31.85,14.14c7.65,6.15,9.74,15.14,3.88,22.68c-5.13,6.6-18.83,5.52-34.02,3.4
		c-26.94-3.76-61.1-11.58-70.69-14.24C10.82,174.5,7.85,163.1,6.51,158.87c-9.65,10.29-9.82,42.49,8.08,52.15
		c14.19,7.66,27.66,12.06,56.85,13.82c21.38,1.29,60.22,2.49,79.25-17.28c1.85-1.92,16.65-13.13,19.71-32.45
		C173.24,157.17,163.39,140.42,147.63,131.07z"/>
	<linearGradient id="SVGID_3_" gradientUnits="userSpaceOnUse" x1="126.9335" y1="97.2802" x2="97.292" y2="134.7815">
		<stop  offset="0.0364" style="stop-color:#076266"/>
		<stop  offset="0.3152" style="stop-color:#1CAABC"/>
		<stop  offset="0.9333" style="stop-color:#4CE5AE"/>
	</linearGradient>
	<path class="st2" d="M102.05,118.36c0,0-0.01,0-0.01,0c17.34,3.75,34.09,7.59,34.09,7.59c0.29,0.09,0.57,0.19,0.85,0.28
		c0.83-0.46,1.64-0.94,2.43-1.45c9.99-9.96,16.01-31.27-24.7-42.84c-2.81-0.8-5.58-1.56-8.32-2.28
		C117.8,84.28,133.92,109.31,102.05,118.36z"/>
	<linearGradient id="SVGID_4_" gradientUnits="userSpaceOnUse" x1="135.675" y1="173.013" x2="117.8649" y2="233.3455">
		<stop  offset="0.0364" style="stop-color:#076266"/>
		<stop  offset="0.3152" style="stop-color:#1CAABC"/>
		<stop  offset="0.9333" style="stop-color:#4CE5AE"/>
	</linearGradient>
	<path class="st3" d="M112.74,196.53c-0.77,0.62-1.58,1.19-2.41,1.73c4.87,0.95,9.68,1.78,14.28,2.42
		c15.19,2.12,28.89,3.2,34.02-3.4c5.86-7.54,3.76-16.53-3.88-22.68c-12.66-10.18-29.05-13.62-45.72-17.46
		C121.21,162.68,131.43,181.46,112.74,196.53z"/>
</g>
</svg>
